<svg xmlns="http://www.w3.org/2000/svg" width="11.502" height="18.387" viewBox="0 0 11.502 18.387"><g id="Arrow_-_Left_3" data-name="Arrow - Left 3" transform="translate(11.502 18.387) rotate(90)"><path id="Combined_Shape" data-name="Combined Shape" d="M-9.338,11.408a.748.748,0,0,0,.388-.656V6.5h8.2A.751.751,0,0,0,0,5.75.75.75,0,0,0-.75,5h-8.2V.75A.751.751,0,0,0-9.338.093.769.769,0,0,0-9.7,0a.735.735,0,0,0-.4.115l-7.938,5a.747.747,0,0,0-.35.635.742.742,0,0,0,.35.634l7.938,5a.751.751,0,0,0,.4.116A.746.746,0,0,0-9.338,11.408ZM-10.45,9.392l-5.78-3.641,5.78-3.642Z" transform="translate(0 0)" fill="#fff"></path></g></svg>