<svg xmlns="http://www.w3.org/2000/svg" width="19.845" height="19.472" viewBox="0 0 19.845 19.472">
  <g id="Calling" transform="translate(0 0)">
    <path id="Combined_Shape" data-name="Combined Shape" d="M14.781,19.472c-2.368,0-5.454-1.885-9.173-5.6C1.872,10.134-.014,7.039,0,4.668A3.536,3.536,0,0,1,1.139,2c.014-.017.057-.06.08-.083l.01-.01C2.582.551,3.493,0,4.377,0h.047C5.485.015,6.241.81,7.2,1.815l.115.121c.209.219.423.445.663.684a2.808,2.808,0,0,1,.674,3.426C8.3,7.036,8,7.891,9.8,9.682a3.728,3.728,0,0,0,2.476,1.408,3.449,3.449,0,0,0,1.159-.264l.005,0a4.174,4.174,0,0,1,1.385-.305,2.863,2.863,0,0,1,2.036.98c.267.267.515.5.754.73l.041.039c1.01.961,1.807,1.72,1.821,2.783.01.906-.54,1.831-1.9,3.192l-.6-.409.51.5a3.54,3.54,0,0,1-2.671,1.14ZM2.136,3.016a2.131,2.131,0,0,0-.71,1.659c-.008,1.36.887,3.885,5.19,8.186,4.288,4.286,6.807,5.187,8.166,5.187h.02a2.142,2.142,0,0,0,1.657-.709,1.953,1.953,0,0,1,.163-.155c.965-.971,1.432-1.664,1.427-2.116s-.575-1-1.365-1.757l-.014-.013c-.235-.223-.517-.492-.82-.794a1.476,1.476,0,0,0-1.038-.561,2.936,2.936,0,0,0-.91.227,4.752,4.752,0,0,1-1.628.35,5.1,5.1,0,0,1-3.485-1.831C6.365,8.267,6.907,6.712,7.3,5.577c.288-.822.419-1.2-.334-1.95-.28-.281-.528-.542-.769-.794L6.165,2.8C5.411,2,4.866,1.432,4.405,1.425H4.4c-.455,0-1.162.486-2.162,1.487h0C2.228,2.923,2.187,2.966,2.136,3.016ZM15.071,7.54A3.477,3.477,0,0,0,12.31,4.778a.712.712,0,0,1,.272-1.4A4.9,4.9,0,0,1,16.47,7.266a.713.713,0,0,1-.563.836.757.757,0,0,1-.138.013A.712.712,0,0,1,15.071,7.54Zm3.355-.068a6.822,6.822,0,0,0-6.058-6.052.711.711,0,0,1-.628-.786.7.7,0,0,1,.786-.628,8.235,8.235,0,0,1,7.315,7.307.712.712,0,0,1-.627.787c-.027,0-.054,0-.081,0A.712.712,0,0,1,18.426,7.472ZM2.239,2.911h0Z" transform="translate(0 0)" fill="#9ebf70"/>
  </g>
</svg>
